<svg width="243" height="300" viewBox="0 0 243 300" fill="none" xmlns="http://www.w3.org/2000/svg">
<g filter="url(#filter0_dddddd_497_786)">
<path d="M121.414 177.232L121.366 177.232C121.366 177.232 121.366 177.232 121.366 177.232C92.9916 177.224 74.161 169.813 64.654 155.809C56.6131 143.964 55.5211 128.744 55.5211 116.472C55.5211 104.202 56.6131 88.9819 64.654 77.1374C74.161 63.1339 92.9917 55.7228 121.366 55.713C121.367 55.713 121.367 55.713 121.367 55.713L121.422 55.713C149.839 55.7125 168.711 63.1197 178.261 77.1278L179.676 76.1632L178.261 77.1279C186.354 88.9989 187.452 104.212 187.452 116.472C187.452 128.733 186.354 143.945 178.261 155.815C168.711 169.823 149.831 177.232 121.414 177.232Z" fill="url(#paint0_linear_497_786)" stroke="#9956F6" stroke-width="3.425"/>
<path d="M86.7696 103.386H98.7062C102.21 103.414 104.749 104.398 106.323 106.335C107.897 108.273 108.416 110.919 107.881 114.274C107.674 115.807 107.213 117.31 106.501 118.785C105.817 120.26 104.868 121.59 103.65 122.776C102.165 124.279 100.577 125.234 98.8844 125.639C97.1919 126.044 95.4397 126.246 93.6287 126.246H88.2839L86.5914 134.488H80.4004L86.7696 103.386ZM91.9807 108.331L89.3083 121.344C89.4865 121.373 89.6647 121.388 89.8428 121.388C90.0504 121.388 90.2588 121.388 90.4664 121.388C93.3169 121.416 95.6927 121.142 97.5927 120.563C99.4928 119.956 100.77 117.845 101.423 114.23C101.958 111.194 101.423 109.444 99.8197 108.981C98.2457 108.519 96.2717 108.302 93.8959 108.331C93.5396 108.359 93.1984 108.374 92.8715 108.374C92.5749 108.374 92.2631 108.374 91.9362 108.374L91.9807 108.331Z" fill="#B585FB"/>
<path d="M114.934 95.1003H121.08L119.343 103.386H124.866C127.895 103.444 130.151 104.051 131.636 105.207C133.151 106.364 133.596 108.562 132.972 111.801L129.988 126.246H123.753L126.603 112.452C126.9 111.005 126.811 109.979 126.336 109.372C125.861 108.765 124.837 108.461 123.263 108.461L118.319 108.417L114.667 126.246H108.52L114.934 95.1003Z" fill="#B585FB"/>
<path d="M139.573 103.386H151.509C155.013 103.414 157.552 104.398 159.126 106.335C160.7 108.273 161.219 110.919 160.685 114.274C160.477 115.807 160.016 117.31 159.304 118.785C158.621 120.26 157.671 121.59 156.453 122.776C154.968 124.279 153.38 125.234 151.688 125.639C149.995 126.044 148.243 126.246 146.432 126.246H141.087L139.395 134.488H133.204L139.573 103.386ZM144.784 108.331L142.112 121.344C142.29 121.373 142.468 121.388 142.646 121.388C142.854 121.388 143.062 121.388 143.27 121.388C146.12 121.416 148.496 121.142 150.396 120.563C152.296 119.956 153.573 117.845 154.226 114.23C154.761 111.194 154.226 109.444 152.623 108.981C151.049 108.519 149.075 108.302 146.699 108.331C146.343 108.359 146.002 108.374 145.675 108.374C145.378 108.374 145.066 108.374 144.739 108.374L144.784 108.331Z" fill="#B585FB"/>
</g>
<defs>
<filter id="filter0_dddddd_497_786" x="-0.377197" y="0.622803" width="243.754" height="298.882" filterUnits="userSpaceOnUse" color-interpolation-filters="sRGB">
<feFlood flood-opacity="0" result="BackgroundImageFix"/>
<feColorMatrix in="SourceAlpha" type="matrix" values="0 0 0 0 0 0 0 0 0 0 0 0 0 0 0 0 0 0 127 0" result="hardAlpha"/>
<feOffset dy="3.98546"/>
<feGaussianBlur stdDeviation="4.23455"/>
<feColorMatrix type="matrix" values="0 0 0 0 0 0 0 0 0 0 0 0 0 0 0 0 0 0 0.29 0"/>
<feBlend mode="normal" in2="BackgroundImageFix" result="effect1_dropShadow_497_786"/>
<feColorMatrix in="SourceAlpha" type="matrix" values="0 0 0 0 0 0 0 0 0 0 0 0 0 0 0 0 0 0 127 0" result="hardAlpha"/>
<feOffset dy="14.9455"/>
<feGaussianBlur stdDeviation="7.47273"/>
<feColorMatrix type="matrix" values="0 0 0 0 0 0 0 0 0 0 0 0 0 0 0 0 0 0 0.26 0"/>
<feBlend mode="normal" in2="effect1_dropShadow_497_786" result="effect2_dropShadow_497_786"/>
<feColorMatrix in="SourceAlpha" type="matrix" values="0 0 0 0 0 0 0 0 0 0 0 0 0 0 0 0 0 0 127 0" result="hardAlpha"/>
<feOffset dy="33.8764"/>
<feGaussianBlur stdDeviation="10.2127"/>
<feColorMatrix type="matrix" values="0 0 0 0 0 0 0 0 0 0 0 0 0 0 0 0 0 0 0.15 0"/>
<feBlend mode="normal" in2="effect2_dropShadow_497_786" result="effect3_dropShadow_497_786"/>
<feColorMatrix in="SourceAlpha" type="matrix" values="0 0 0 0 0 0 0 0 0 0 0 0 0 0 0 0 0 0 127 0" result="hardAlpha"/>
<feOffset dy="60.28"/>
<feGaussianBlur stdDeviation="11.9564"/>
<feColorMatrix type="matrix" values="0 0 0 0 0 0 0 0 0 0 0 0 0 0 0 0 0 0 0.04 0"/>
<feBlend mode="normal" in2="effect3_dropShadow_497_786" result="effect4_dropShadow_497_786"/>
<feColorMatrix in="SourceAlpha" type="matrix" values="0 0 0 0 0 0 0 0 0 0 0 0 0 0 0 0 0 0 127 0" result="hardAlpha"/>
<feOffset dy="94.1564"/>
<feGaussianBlur stdDeviation="13.2018"/>
<feColorMatrix type="matrix" values="0 0 0 0 0 0 0 0 0 0 0 0 0 0 0 0 0 0 0.01 0"/>
<feBlend mode="normal" in2="effect4_dropShadow_497_786" result="effect5_dropShadow_497_786"/>
<feColorMatrix in="SourceAlpha" type="matrix" values="0 0 0 0 0 0 0 0 0 0 0 0 0 0 0 0 0 0 127 0" result="hardAlpha"/>
<feOffset/>
<feGaussianBlur stdDeviation="26.6886"/>
<feComposite in2="hardAlpha" operator="out"/>
<feColorMatrix type="matrix" values="0 0 0 0 0.6 0 0 0 0 0.337255 0 0 0 0 0.964706 0 0 0 0.7 0"/>
<feBlend mode="normal" in2="effect5_dropShadow_497_786" result="effect6_dropShadow_497_786"/>
<feBlend mode="normal" in="SourceGraphic" in2="effect6_dropShadow_497_786" result="shape"/>
</filter>
<linearGradient id="paint0_linear_497_786" x1="-64.4765" y1="-74.437" x2="175.602" y2="207.658" gradientUnits="userSpaceOnUse">
<stop stop-color="#B585FB"/>
<stop offset="1" stop-color="#0E1207"/>
</linearGradient>
</defs>
</svg>
